<?xml version="1.0" standalone="no"?>
<!DOCTYPE svg PUBLIC "-//W3C//DTD SVG 20010904//EN"
 "http://www.w3.org/TR/2001/REC-SVG-20010904/DTD/svg10.dtd">
<svg version="1.0" xmlns="http://www.w3.org/2000/svg"
 width="2048.000000pt" height="512.000000pt" viewBox="0 0 2048.000000 512.000000"
 preserveAspectRatio="xMidYMid meet">

<g transform="translate(0.000000,512.000000) scale(0.100000,-0.100000)"
fill="#000000" stroke="none">
<path d="M10130 3694 c-14 -2 -56 -9 -95 -15 -226 -37 -450 -154 -626 -329
-195 -193 -316 -442 -335 -690 l-6 -75 54 -43 c65 -53 193 -117 273 -137 81
-21 177 -19 269 5 98 25 154 56 253 137 179 149 279 203 417 225 185 29 369
-63 411 -206 15 -50 20 -106 9 -106 -3 0 -24 16 -47 35 -34 30 -48 35 -90 35
-44 0 -54 -4 -87 -37 -43 -44 -56 -93 -40 -151 24 -89 93 -151 200 -178 115
-29 156 -19 385 97 140 70 219 104 262 112 53 10 63 15 68 36 10 39 7 251 -5
324 -75 473 -463 857 -955 947 -65 12 -274 21 -315 14z"/>
<path d="M10323 2749 c-120 -21 -240 -89 -398 -226 -164 -142 -247 -196 -354
-227 -139 -41 -326 1 -458 102 -30 22 -33 23 -33 6 0 -59 21 -93 73 -122 128
-73 294 -107 397 -84 24 6 46 9 48 7 2 -2 -3 -29 -12 -60 -14 -47 -22 -58 -52
-72 -30 -15 -45 -16 -114 -5 -85 12 -204 50 -246 77 -43 28 -19 28 50 1 144
-58 278 -76 314 -42 11 9 22 28 25 42 4 24 4 24 -82 24 -105 0 -189 19 -288
65 -42 19 -78 33 -81 30 -7 -7 35 -120 73 -195 251 -496 839 -749 1383 -594
241 68 508 255 640 447 30 42 31 47 13 47 -10 0 -86 -34 -168 -75 -177 -90
-254 -110 -384 -101 -118 8 -289 62 -274 86 4 6 18 4 35 -5 64 -33 184 -58
280 -57 120 0 193 22 356 107 67 35 138 67 158 70 32 6 40 15 62 58 l26 50
-39 -6 c-21 -4 -110 -42 -198 -86 -185 -93 -246 -111 -367 -111 -101 0 -172
13 -247 46 -69 31 -85 30 -111 -3 -29 -37 -22 -94 16 -134 48 -50 230 -99 371
-99 77 0 205 22 261 45 39 17 43 1 5 -19 -114 -58 -358 -62 -521 -8 -158 52
-287 142 -382 269 -66 87 -92 113 -114 113 -11 0 -59 -27 -108 -60 -124 -84
-218 -113 -363 -114 -113 0 -176 11 -210 40 -19 15 -19 15 5 9 14 -3 62 -13
108 -21 149 -27 308 11 455 110 127 85 136 83 247 -63 52 -69 112 -127 170
-164 l25 -16 -4 41 c-4 48 19 99 53 118 19 10 33 7 86 -15 129 -54 264 -68
389 -40 42 10 128 46 223 94 86 44 180 84 211 90 50 11 57 15 70 49 15 36 15
37 -9 40 -65 9 -264 -79 -286 -125 -29 -61 -107 -27 -79 35 10 21 16 24 46 19
28 -5 54 3 128 38 51 24 122 50 159 57 l67 12 10 43 c18 69 17 72 -31 62 -68
-13 -112 -31 -299 -127 -128 -65 -197 -95 -254 -107 -236 -53 -435 65 -435
257 0 120 67 205 175 222 22 4 55 2 74 -4 48 -14 51 -5 5 16 -87 37 -192 15
-264 -58 -51 -50 -70 -101 -70 -189 0 -65 4 -85 31 -137 60 -120 210 -202 371
-202 50 0 60 3 74 25 21 32 58 33 79 1 23 -34 5 -66 -35 -66 -16 0 -32 5 -35
10 -3 6 -41 10 -84 10 -123 0 -243 44 -326 121 -97 90 -129 250 -73 372 40 85
23 117 -60 117 -63 0 -115 -36 -252 -174 -72 -74 -142 -139 -155 -146 -15 -8
-27 -28 -34 -55 -10 -39 -15 -44 -71 -68 -40 -18 -64 -35 -72 -52 -12 -27 -28
-33 -28 -11 0 25 35 57 90 84 47 23 56 32 62 62 4 21 17 41 35 53 15 11 82 75
148 142 129 132 176 167 243 185 53 14 105 -1 128 -35 l15 -23 56 34 c86 52
170 56 254 14 20 -11 48 -33 63 -50 35 -43 33 -15 -4 43 -65 103 -230 162
-377 136z m-129 -278 c16 -18 17 -27 6 -88 -10 -52 -10 -82 -1 -121 12 -57 51
-141 74 -160 48 -41 41 -132 -11 -132 -31 0 -85 55 -137 139 -21 34 -44 61
-51 61 -18 0 -35 35 -28 55 10 26 41 37 65 24 18 -9 20 -17 15 -51 -5 -31 -2
-48 16 -76 26 -43 107 -132 119 -132 5 0 13 9 20 21 9 18 4 31 -36 88 -63 92
-77 143 -73 266 3 97 2 100 -19 103 -17 3 -33 -11 -70 -60 -75 -99 -182 -206
-250 -251 -38 -25 -63 -48 -63 -59 0 -28 -44 -52 -69 -38 -45 24 -7 97 43 84
44 -11 199 119 292 244 31 42 64 83 72 90 23 18 67 15 86 -7z m-166 -483 c7
-7 12 -24 12 -38 0 -18 18 -42 63 -85 149 -145 335 -248 482 -270 25 -4 45
-11 45 -16 0 -28 -150 11 -265 69 -101 50 -178 105 -265 189 -45 42 -86 73
-98 73 -21 0 -52 24 -52 41 0 41 51 64 78 37z m-95 -134 c18 -9 84 -67 147
-128 66 -65 144 -130 183 -153 40 -24 64 -44 58 -48 -27 -16 -192 105 -285
209 -67 75 -130 116 -177 116 -13 0 -59 -11 -102 -24 -138 -43 -277 -57 -277
-27 0 4 39 11 88 14 50 3 121 16 167 31 94 29 154 32 198 10z m-39 -98 c18 -8
69 -50 112 -93 44 -44 92 -89 109 -101 34 -23 29 -40 -7 -21 -12 7 -66 54
-120 106 -91 88 -98 93 -140 93 -23 0 -82 -10 -129 -22 -68 -17 -92 -20 -110
-11 -23 10 -22 11 16 17 22 4 72 15 110 26 87 23 116 24 159 6z"/>
<path d="M10074 2219 c-8 -14 11 -33 25 -25 16 10 13 36 -3 36 -8 0 -18 -5
-22 -11z"/>
<path d="M9707 2106 c-7 -16 1 -26 20 -26 7 0 13 9 13 20 0 23 -25 27 -33 6z"/>
<path d="M9983 1964 c-9 -23 11 -38 26 -20 13 16 7 36 -10 36 -5 0 -12 -7 -16
-16z"/>
<path d="M10477 2549 c-76 -40 -113 -141 -87 -237 14 -54 76 -123 134 -151 54
-26 133 -42 160 -31 20 9 20 9 1 10 -34 1 -101 36 -145 77 -77 68 -100 163
-61 248 22 49 36 61 98 85 l48 19 -55 0 c-36 0 -68 -7 -93 -20z"/>
<path d="M9070 2505 c0 -42 3 -46 53 -84 139 -104 291 -142 423 -107 50 13
188 76 181 82 -1 2 -30 -4 -62 -13 -168 -44 -371 2 -534 122 l-61 45 0 -45z"/>
<path d="M10993 2104 c-9 -23 11 -38 26 -20 13 16 7 36 -10 36 -5 0 -12 -7
-16 -16z"/>
<path d="M10783 2034 c-8 -21 13 -42 28 -27 13 13 5 43 -11 43 -6 0 -13 -7
-17 -16z"/>
</g>
</svg>
