<?xml version="1.0" encoding="utf-8" ?><svg xmlns="http://www.w3.org/2000/svg" xmlns:xlink="http://www.w3.org/1999/xlink" width="1024" height="1024" viewBox="0 0 1024 1024"><path fill="#9AF3F4" d="M209.79 385.741C265.386 380.825 314.422 421.956 319.254 477.56C324.086 533.163 282.88 582.136 227.269 586.884C171.778 591.621 122.933 550.523 118.112 495.039C113.29 439.555 154.313 390.648 209.79 385.741ZM211.607 525.687C217.674 523.866 220.792 524.084 226.92 525.629L231.844 522.598C241.323 516.656 250.754 510.638 260.137 504.545C249.822 492.785 248.623 480.453 262.341 470.437C252.568 463.975 238.099 455 229.577 447.546C223.672 450.39 219.681 451.49 213.038 449.409C211.258 448.851 208.679 447.295 207.533 446.925C197.56 454.829 187.575 462.239 177.584 470.028C191.474 479.185 191.088 492.305 179.986 503.631C191.924 512.325 198.106 518.21 211.607 525.687ZM281.182 554.639C284.335 551.803 289.142 547.807 289.584 543.43C288.903 541.865 289.459 542.307 288.168 541.73C272.059 543.853 251.998 549.262 236.013 549.573C229.054 566.443 213.097 564.854 203.421 551.078C185.308 547.878 168.087 542.518 150.355 539.167L147.244 543.852C164.562 564.077 182.986 576.256 210.001 578.78C238.326 581.425 260.014 572.913 281.182 554.639ZM201.312 423.208C207.187 413.968 213.509 407.96 225.335 411.232C231.393 413.955 233.293 416.066 236.886 421.636C243.655 423.202 284.277 432.013 288.99 431.442C293.242 427.048 274.681 412.547 271.509 410.238C256.611 399.389 233.654 392.24 215.35 393.218C189.225 395.455 168.775 403.852 150.577 423.776C149.595 424.851 148.822 425.934 148.585 427.384C152.231 433.823 193.895 425.476 201.312 423.208ZM142.143 538.419C143.855 535.813 145.154 532.841 146.508 530.014C150.485 521.928 155.035 512.834 158.268 504.414C153.36 500.882 150.014 496.785 149.086 490.619C148.3 485.336 149.756 479.966 153.102 475.803C155.391 472.914 157.193 471.69 160.41 470.055C157.102 463.697 145.977 437.552 142.789 434.342C140.212 438.343 137.787 442.238 135.688 446.528C121.976 474.547 124.208 512.592 142.143 538.419ZM280.571 506.152L289.974 527.651C291.677 531.481 292.747 533.661 295.465 537.001C307.366 521.799 311.89 494.851 309.631 475.999C308.343 465.245 303.023 443.929 295.651 435.805C288.66 445.918 283.195 457.113 278.19 468.331C284.357 471.189 288.846 474.314 291.228 481.16C292.951 486.146 292.599 491.616 290.25 496.341C287.913 501.069 284.923 503.486 280.571 506.152ZM154.599 438.011C158.149 447.041 161.918 455.982 165.905 464.828L168.071 469.222C180.577 456.129 189.197 451.612 202.352 440.509C201.656 438.427 200.209 433.007 198.737 432.04L197.861 432.175C183.123 434.529 169.509 436.56 154.599 438.011ZM170.839 499.166C177.206 497.803 181.243 491.513 179.828 485.157C178.412 478.801 172.088 474.817 165.745 476.285C159.475 477.736 155.548 483.97 156.946 490.252C158.345 496.533 164.546 500.512 170.839 499.166ZM165.497 507.434C161.853 515.833 157.155 524.32 153.771 532.291C166.714 534.246 183.37 538.519 196.141 541.753L202.233 542.958C202.685 537.823 202.702 536.653 205.45 532.111C193.716 522.851 183.909 518.372 173.047 507.3C170.314 507.472 168.243 507.683 165.497 507.434ZM274.767 500.352C278.931 498.19 282.121 496.258 283.782 491.421C284.903 488.151 284.643 484.565 283.061 481.491C280.546 476.588 275.132 474.634 269.866 474.933C254.598 483.655 257.988 502.094 274.767 500.352ZM222.259 441.867C226.349 440.815 229.556 437.645 230.657 433.567C231.757 429.49 230.58 425.137 227.575 422.169C224.57 419.202 220.202 418.08 216.139 419.232C209.963 420.983 206.343 427.376 208.019 433.573C209.694 439.77 216.042 443.467 222.259 441.867ZM217.798 532.204C211.915 533.246 208.012 538.886 209.109 544.759C210.206 550.631 215.882 554.482 221.744 553.33C227.53 552.194 231.319 546.608 230.237 540.812C229.154 535.016 223.603 531.175 217.798 532.204ZM247.608 540.449C259.315 538.442 272.448 536.385 283.905 533.684C282.627 530.584 274.274 509.659 273.271 508.755C271.232 508.557 269.443 508.467 267.559 507.611C255.968 516.82 245.157 522.855 233.135 531.023C236.068 534.935 236.736 537.446 237.197 542.327C240.582 541.678 244.216 540.913 247.608 540.449ZM238.43 430.008C237.917 435.962 237.706 437.06 234.925 442.334C244.457 450.175 256.107 455.194 265.399 463.382C266.862 464.671 268.63 466.2 270.176 467.374C271.433 464.872 272.818 462.217 273.996 459.691C277.263 452.821 280.611 445.99 284.038 439.198C270.388 436.568 251.639 433.411 238.43 430.008Z"/><path fill="#FEFEFE" d="M428.77 497.121C427.421 477.555 429.028 456.57 428.488 436.88C428.804 429.835 441.275 430.668 445.92 431.164C454.695 432.101 455.386 433.68 455.406 441.617C455.486 472.732 455.849 503.896 455.249 534.989C455.205 537.25 452.542 539.217 450.952 540.355C445.05 541.314 439.032 541.316 433.13 540.361C430.396 538.282 427.819 535.552 425.652 532.89C410.289 514.015 393.769 495.788 379 476.461L379.073 517.077C379.086 522.812 379.118 531.054 378.857 536.459C378.502 543.839 356.5 543.429 353.154 538.747C352.53 537.874 352.008 532.831 352.019 531.297C352.258 499.048 350.928 466.403 353.064 434.285C353.161 432.829 356.198 431.532 357.472 431.036C362.713 430.969 367.953 430.977 373.193 431.06C379.805 435.34 393.282 453.801 399.06 460.792C408.941 472.747 418.528 485.38 428.77 497.121Z"/><path fill="#FEFEFE" d="M536.947 431.274C542.649 431.031 558.792 429.834 563.088 433.72C564.882 435.342 564.668 448.316 562.091 451.185C556.284 453.663 511.586 452.667 503.523 452.657C503.628 459.853 503.533 467.273 503.532 474.488C510.549 474.467 552.623 473.438 555.578 476.066C556.981 477.314 557.166 479.945 557.256 481.701C557.432 485.168 557.989 492.084 555.036 494.576C551.871 497.248 510.399 496.023 503.54 496.045L503.52 519.148C513.263 518.985 523.006 518.916 532.75 518.941C538.892 518.919 557.524 518.511 562.456 520.122C566.693 523.552 566.633 540.249 560.723 540.494C539.636 541.369 517.885 540.973 496.814 541.053C488.665 541.083 476.392 543.083 477.033 531.988C476.976 524.867 476.783 517.807 476.785 510.684L476.817 475.755L476.862 450.665C476.872 446.213 475.982 435.8 478.988 433.119C481.84 430.575 496.721 431.375 500.9 431.381C512.916 431.498 524.932 431.462 536.947 431.274Z"/><path fill="#FEFEFE" d="M723.069 429.662C730.98 428.485 743.17 429.852 750.484 432.95C766.998 439.944 788.499 452.903 760.535 464.557C752.752 460.381 743.936 451.548 735.061 450.802C692.646 447.239 684.044 513.573 725.325 521.65C738.573 524.243 747.307 517.257 757.268 509.723C764.066 506.098 778.494 519.181 772.55 525.615C753.527 546.209 717.073 548.668 694.467 532.556C682.447 524.011 674.382 510.977 672.101 496.407C669.511 480.882 673.279 464.967 682.556 452.252C692.739 438.344 706.492 432.225 723.069 429.662Z"/><path fill="#FEFEFE" d="M776.278 430.431C784.269 431.297 790.827 430.536 798.578 431.343C800.079 431.586 801.612 432.538 802.535 433.733C813.175 447.517 820.939 464.066 830.646 478.402C837.538 465.831 845.041 453.291 852.017 440.739C853.914 437.325 856.166 433.882 858.738 430.941C863.099 430.976 880.064 429.951 882.36 432.732C883.168 438.774 862.887 467.726 858.51 474.198C853.564 482.542 847.9 490.832 842.738 499.115C843.655 510.552 844.433 527.785 841.815 538.906C840.474 544.603 822.313 542.203 818.47 540.209C815.241 536.814 816.401 506.553 816.429 499.923C813.989 495.606 810.02 490.059 807.235 485.772L784.619 451.064C781.812 446.663 775.982 438.006 774.493 433.543C774.707 431.68 774.774 432.149 776.278 430.431Z"/><path fill="#FEFEFE" d="M575.042 431.559C591.697 430.847 610.43 431.879 627.35 431.496C639.524 431.572 651.683 431.245 663.856 431.524C669.297 431.649 668.422 436.456 668.605 440.366C668.701 442.415 668.956 449.495 667.261 450.633C662.674 453.712 655.356 452.823 650.027 453.049C644.384 453.087 638.602 452.929 632.96 452.841L632.967 508.969C633.047 517.784 634.201 530.827 631.376 538.973C630.321 542.014 608.918 541.347 608.225 539.293C604.989 529.694 606.262 510.381 606.304 500.427L606.345 452.575C597.304 452.726 581.497 453.973 573.465 450.944C571.901 450.354 569.783 435.89 575.042 431.559Z"/></svg>