<?xml version="1.0" encoding="utf-8" ?><svg xmlns="http://www.w3.org/2000/svg" xmlns:xlink="http://www.w3.org/1999/xlink" width="846" height="801" viewBox="0 0 846 801"><clipPath id="cl_3"><rect x="-6.1035156e-05" width="846.00006" height="801"/></clipPath><g clip-path="url(#cl_3)"><path fill="#9AEFF8" fill-opacity="0.98039216" transform="matrix(0.77686 0 0 0.764313 -267.24 -1094.5)" d="M842.773 1543C1064.06 1525.64 1257.6 1690.76 1275.31 1912.01C1293.02 2133.27 1128.21 2327.07 906.984 2345.13C685.263 2363.23 490.932 2197.97 473.181 1976.22C455.429 1754.47 620.996 1560.4 842.773 1543ZM708.326 1880.16C764.824 1917.36 759.768 1951.14 724.774 2001.91C722.729 2004.88 720.669 2007.83 718.594 2010.77C760.733 2047.04 801.921 2070.96 844.708 2104.29C865.188 2097.73 885.825 2098.8 906.966 2101.98L925.373 2091.83C963.917 2068.36 1006.09 2043.81 1041.98 2016.99C1006.31 1963.9 993.641 1927.92 1049.68 1882.72C1006.08 1849.48 960.255 1821.24 916.499 1788.81C879.03 1798.83 864.653 1799.87 828.204 1785.59C789.237 1816.62 748.108 1850.46 708.326 1880.16ZM1129.42 2216.65C1141.89 2205.24 1165.22 2188.75 1154.19 2170.53C1140.8 2164.07 970.383 2193.2 944.715 2197.91C900.408 2258.74 862.297 2261.46 812.962 2202.09C747.211 2188.87 658.134 2171.7 593.764 2155.02C590.725 2162.55 588.537 2168.04 592.581 2175.74C620.684 2229.21 696.023 2273.58 749.684 2294.66C885.673 2348.08 1020.39 2304.59 1129.42 2216.65ZM805.635 1693.47C830.693 1662.35 847.237 1640.58 890.832 1641.9C919.417 1651.78 930.975 1662.68 948.739 1686.92C985.285 1694.82 1128.62 1727.94 1157.01 1719.02C1162.05 1707.59 1143.12 1691.28 1135.31 1683.14C1091.29 1637.26 1036.19 1603.51 975.314 1585.16C948.099 1576.91 891.095 1566.58 862.982 1570.87C763.136 1577.6 671.392 1611.74 605.605 1689.25C599.655 1696.26 596.798 1698.69 593.038 1707.42C603.603 1737.8 777.068 1700.84 805.635 1693.47ZM571.519 2157.36C576.529 2145.5 580.487 2136.26 586.454 2124.8C601.223 2092.33 622.921 2048.21 634.291 2015.69C585.685 1966.01 582.449 1921.47 643.917 1879.96C633.194 1857.68 582.919 1748.44 571.153 1735.34C512.861 1827.05 489.014 1914.42 513.54 2022.56C525.708 2076.21 538.655 2112.85 571.519 2157.36ZM1109.43 1871.57C1186.44 1912.52 1184.64 1970.38 1121.77 2024.13C1133.36 2053.05 1145.92 2084.92 1159.72 2112.89C1165.72 2124.61 1171.9 2136.24 1178.25 2147.77C1221.92 2105.34 1241.33 2013.05 1242.21 1954.25C1243.08 1890.62 1228.27 1827.76 1199.08 1771.21C1195.17 1763.65 1187.39 1748.28 1181.09 1743.01C1154.44 1781.31 1130.17 1829.54 1109.43 1871.57ZM659.247 1852.68L669.897 1872.81C711.602 1843.7 775.145 1796.13 809.716 1759.05C806.118 1745.17 803.808 1725.75 784.786 1728.78C735.005 1736.1 662.81 1747.43 613.478 1748.45C628.98 1783.09 644.237 1817.83 659.247 1852.68ZM953.497 1719.37C948.626 1735.81 943.882 1752.46 938.33 1768.67C983.669 1803.22 1037.79 1830.07 1078.03 1870.64C1083 1861.55 1089.34 1850.63 1093.87 1841.52L1138.55 1756.7C1077.07 1743.01 1015.64 1733.9 953.497 1719.37ZM1080.88 1895.93C1025.69 1932.73 1019.73 1999.84 1096.66 2003.82C1103.72 2000.4 1113.88 1995.89 1119.28 1990.4C1157.23 1951.78 1136.19 1896.9 1080.88 1895.93ZM685.035 1996.97C710.909 1990.09 726.339 1963.57 719.533 1937.68C712.727 1911.79 686.252 1896.28 660.341 1903.02C634.329 1909.78 618.754 1936.38 625.586 1962.37C632.418 1988.37 659.061 2003.87 685.035 1996.97ZM886.952 1767.61C909.503 1762.98 925.619 1743.03 925.409 1720C925.281 1705.95 919.02 1692.65 908.269 1683.6C897.519 1674.55 883.351 1670.65 869.482 1672.92C852.274 1675.73 837.932 1687.63 831.987 1704.02C826.042 1720.42 829.423 1738.74 840.826 1751.93C852.229 1765.12 869.872 1771.12 886.952 1767.61ZM886.968 2213.7C910.618 2208.82 925.961 2185.84 921.417 2162.13C916.873 2138.41 894.126 2122.74 870.346 2126.94C854.654 2129.71 841.671 2140.72 836.371 2155.74C831.07 2170.77 834.273 2187.49 844.752 2199.49C855.231 2211.5 871.363 2216.93 886.968 2213.7ZM929.515 2123.02C957.553 2167.05 939.852 2172.82 1000.34 2160.52C1044.36 2153.1 1095.38 2145.58 1138.27 2135.49C1128.62 2110.79 1119.29 2085.11 1107.79 2061.27C1098.3 2041.59 1086.66 2030.1 1064.6 2029.48C1022.8 2063.81 973.593 2091.09 929.515 2123.02ZM690.177 2027.95L661.334 2027.92C642.93 2057.83 625.727 2095.69 613.382 2128.84C672.3 2141.24 728.007 2155.46 787.617 2166.62C794.905 2168.05 802.756 2169.78 810.016 2171.01C814.045 2153.39 817.171 2143.73 823.337 2126.63C777.167 2093.93 734.545 2063.29 690.177 2027.95Z"/></g></svg>