<?xml version="1.0" encoding="utf-8" ?><svg xmlns="http://www.w3.org/2000/svg" xmlns:xlink="http://www.w3.org/1999/xlink" width="1024" height="1024" viewBox="0 0 1024 1024"><path fill="#0D2934" d="M0 0L1024 0L1024 1024L0 1024L0 0Z"/><path fill="#9CF3F2" d="M208.234 386.087C263.645 380.312 313.218 420.616 318.875 476.038C324.532 531.461 284.123 580.949 228.689 586.488C173.42 592.011 124.113 551.749 118.473 496.493C112.833 441.236 152.99 391.844 208.234 386.087Z"/><path fill="#0D2934" d="M207.574 446.488C216.358 451.632 220.462 451.439 229.477 447.406C239.495 455.836 251.949 462.763 262.635 470.436C257.082 474.972 253.478 478.866 252.588 486.525C251.662 494.502 255.669 499.167 260.378 504.763C250.344 511.032 241.278 516.686 231.235 523.189L226.974 525.973C221.136 523.212 217.336 524.352 211.444 526.023C202.469 520.968 187.251 510.484 180.106 503.393C190.488 492.286 191.35 478.347 177.176 470.168C186.842 461.59 197.912 455.16 207.574 446.488Z"/><path fill="#0D2934" d="M150.286 539.233C154.927 539.357 165.02 542.386 170.087 543.503C180.972 545.903 192.537 549.014 203.502 550.861C212.172 564.563 229.239 565.907 235.701 550.058C250.654 548.564 265.391 545.502 280.134 542.693C283.033 542.141 285.912 541.443 288.857 541.2C292.286 545.716 285.246 551.006 282.054 554.19C280.163 555.856 278.249 557.495 276.312 559.108C257.606 574.616 233.387 581.83 209.243 579.086C183.421 576.308 163.196 563.889 147.099 544.067C148.054 542.3 149.132 540.863 150.286 539.233Z"/><path fill="#0D2934" d="M212.372 393.211C222.465 391.426 240.249 395.522 249.956 398.682C262.589 402.795 284.618 417.279 290.258 429.391C289.697 431.063 289.817 431.033 288.534 432.2C285.995 432.042 283.744 431.552 281.272 430.981C266.456 427.562 251.435 425.097 236.586 421.879C234.109 417.097 231.631 415.015 227.259 412.188C215.618 407.196 207.041 413.334 201.544 423.454C193.881 425.827 158.88 431.643 152.022 430.059C150.285 429.658 149.156 429.13 148.153 427.609C148.185 426.181 149.224 424.942 150.181 423.88C167.046 405.179 187.742 395.251 212.372 393.211Z"/><path fill="#0D2934" d="M142.531 434.296C146.643 437.471 157.072 463.266 160.652 470.193C157.131 472.065 155.191 473.273 152.79 476.567C149.666 480.842 148.435 486.212 149.383 491.421C150.494 497.273 153.775 501.051 158.456 504.349C155.637 512.268 150.51 522.357 146.798 530.126C145.371 533.247 143.827 536.124 142.224 539.154C121.445 508.604 120.778 464.582 142.531 434.296Z"/><path fill="#0D2934" d="M295.446 435.713L296.21 436.068C303.707 445.142 309.433 468.491 310.299 480.19C311.503 496.461 306.367 524.924 295.623 537.25C292.981 534.798 292.154 532.957 290.591 529.845C287.104 521.906 283.685 513.938 280.334 505.941C284.692 503.393 287.289 501.683 289.825 496.896C292.325 492.223 292.82 486.735 291.196 481.691C288.877 474.664 284.404 471.48 278.197 468.417C281.787 459.31 289.595 443.091 295.446 435.713Z"/><path fill="#0D2934" d="M171.874 507.28C172.058 507.185 172.737 507.09 172.977 507.046C178.174 512.191 180.221 514.072 186.297 518.401C192.029 522.485 200.688 527.644 205.699 532.254C202.674 537.002 202.82 537.669 202.425 543.354C198.656 542.424 194.875 541.541 191.083 540.706C179.768 537.8 164.923 534.524 153.524 532.41C157.073 524.081 161.742 516.333 165.29 507.537C167.694 507.588 169.497 507.45 171.874 507.28Z"/><path fill="#0D2934" d="M267.517 507.325C270.078 508.723 270.932 508.358 273.829 507.979C276.736 516.457 280.731 525.637 284.195 533.977C272.876 536.544 259.722 538.521 248.111 540.568C244.558 541.106 240.616 541.944 237.051 542.625C236.456 537.358 236.406 534.926 232.848 531.022C240.67 525.773 261.609 513.234 267.517 507.325Z"/><path fill="#0D2934" d="M238.152 429.722C253.296 433.242 268.895 436.085 284.177 439.012C280.675 445.93 277.288 452.906 274.018 459.936C273.133 461.978 271.711 465.915 270.257 467.255C268.451 466.64 267.172 465.15 265.733 463.856C256.804 455.82 243.796 450.041 234.538 442.508C237.312 437.593 237.774 435.171 238.152 429.722Z"/><path fill="#0D2934" d="M198.91 431.675L199.762 431.865C200.67 435.136 201.407 437.488 202.581 440.671C195.229 447.027 187.354 452.173 179.881 458.315C175.835 461.639 171.711 465.939 167.996 469.696L165.025 463.569C161.508 455.939 157.412 445.742 154.313 437.91C169.585 436.592 183.877 434.302 198.91 431.675Z"/><path fill="#0D2934" d="M270.15 474.555C285.554 473.834 291.572 494.231 274.42 500.658C259.019 502.836 253.118 482.176 270.15 474.555Z"/><path fill="#0D2934" d="M216.707 418.774C223.143 417.348 229.529 421.36 231.039 427.776C232.549 434.193 228.621 440.631 222.225 442.224C218.012 443.274 213.561 441.975 210.573 438.826C207.585 435.676 206.523 431.163 207.793 427.011C209.063 422.86 212.468 419.713 216.707 418.774Z"/><path fill="#0D2934" d="M166.959 475.735C173.429 475 179.305 479.56 180.197 486.01C181.09 492.46 176.675 498.445 170.248 499.494C165.95 500.196 161.608 498.514 158.906 495.098C156.204 491.682 155.565 487.07 157.238 483.048C158.911 479.027 162.632 476.228 166.959 475.735Z"/><path fill="#0D2934" d="M217.61 531.998C221.526 531.252 225.538 532.683 228.098 535.738C230.658 538.793 231.365 542.993 229.946 546.718C228.528 550.443 225.205 553.109 221.261 553.686C215.341 554.553 209.814 550.529 208.821 544.629C207.828 538.729 211.733 533.117 217.61 531.998Z"/><path fill="#FEFEFE" d="M356.631 431.189C362.16 430.926 367.697 430.872 373.23 431.03C378.817 434.487 386.949 445.854 391.497 451.471L413.618 478.751C418.358 484.649 423.923 492.024 428.96 497.438C427.507 477.455 428.912 456.088 428.527 435.981C428.395 429.107 450.45 429.841 454.609 434.243C455.918 439.427 455.444 474.681 455.443 482.728L455.42 515.289C455.41 521.588 455.473 528.018 455.165 534.313C455.019 537.288 454.013 538.257 451.811 540.097C446.78 541.516 438.311 540.906 433.004 540.605L432.838 540.482C428.256 537.169 417.147 522.769 412.755 517.372C401.957 504.103 388.974 489.938 378.861 476.298L379.076 518.554C379.092 524.432 379.272 530.675 378.973 536.485C378.672 542.308 369.755 541.847 365.823 541.814C361.259 541.775 356.248 542.198 352.9 538.629C352.376 536.894 351.935 534.276 351.954 531.912C352.208 499.842 351.135 467.096 352.637 435.155C352.705 433.706 355.441 431.876 356.631 431.189Z"/><path fill="#FEFEFE" d="M481.298 431.572C497.862 431.126 514.522 431.547 531.098 431.482C539.759 431.447 550.823 430.441 559.269 431.581C560.516 431.749 561.91 432.317 562.824 433.204C563.765 434.118 563.79 435.535 563.897 436.772C564.185 440.112 564.745 448.739 562.241 451.236C560.073 453.4 511.126 452.553 503.689 452.561L503.495 474.588C511.546 474.567 550.851 473.595 555.608 476.03C556.661 477.38 556.969 478.059 557.043 479.903C557.832 499.654 555.226 496.077 535.755 495.943L505.375 495.854C504.491 495.867 504.771 495.875 503.895 496.273C503.056 499.43 503.414 515.38 503.436 519.367C510.615 518.939 558.18 518.288 562.651 519.742C566.291 522.829 566.041 536.401 562.889 540.059C562.07 540.558 561.664 540.754 560.654 540.774C547.932 541.024 535.084 540.964 522.349 540.924C509.598 540.884 496.565 541.296 483.877 540.707C481.699 540.606 480.201 540.28 479.027 538.564C477.773 536.732 477.127 536.031 477.035 533.697C476.775 527.155 476.869 520.38 476.863 513.835L476.845 474.562L476.855 449.251C476.858 445.141 476.732 440.442 477.135 436.367C477.339 434.311 479.725 432.689 481.298 431.572Z"/><path fill="#FEFEFE" d="M723.4 429.699C741.04 427.284 758.074 433.777 771.178 445.63C781.997 455.416 762.253 464.931 760.2 464.221C752.384 461.516 747.74 453.055 736.059 451.08C728.079 449.654 719.865 451.59 713.362 456.43C696.807 468.584 693.318 493.915 705.708 510.042C710.643 516.556 718.001 520.801 726.111 521.813C740.498 523.66 747.155 517.396 757.724 509.312C764.605 506.912 778.818 519.632 772.897 525.674C752.894 546.085 715.815 549.07 693 531.538C681.341 522.726 673.756 509.561 671.979 495.055C667.891 460.95 689.308 433.706 723.4 429.699Z"/><path fill="#FEFEFE" d="M776.508 430.629C784.335 430.98 792.349 430.687 800.274 430.971L800.832 431.49C805.077 435.385 826.095 471.165 830.319 478.423C836.429 469.548 842.45 457.257 848.114 447.857C851.843 441.669 853.864 436.419 858.951 430.909C865.647 430.841 872.81 430.646 879.493 430.958C881.383 431.047 881.908 431.773 882.997 433.117C883.754 437.331 863.03 467.656 859.231 473.367C853.947 481.95 848.495 490.428 842.877 498.795C843.039 506.159 844.466 534.876 841.678 539.748C840.972 540.982 840.091 541.634 838.704 541.943C834.736 542.827 821.232 542.216 817.939 540.281C815.668 537.411 816.547 505.817 816.563 499.879C811.055 491.22 775.968 439.597 774.456 433.23C775.058 431.38 774.761 432.011 776.508 430.629Z"/><path fill="#FEFEFE" d="M574.974 431.552C582.517 431.065 591.445 431.514 599.106 431.485C620.081 431.408 641.083 431.482 662.06 431.337C668.939 431.29 668.62 434.564 668.624 440.218C668.625 443.032 669.346 448.436 667.729 450.815C662.691 454.377 640.206 452.895 632.857 452.668C632.659 470.457 632.82 488.56 632.805 506.375C632.723 515.569 633.378 526.233 632.724 535.352C632.611 536.928 630.92 540.262 629.663 540.383C625.032 540.83 612.305 541.371 608.289 539.818C605.437 536.604 606.39 511.868 606.395 506.288L606.432 452.492C600.299 452.492 577.794 453.555 573.662 451.276C571.472 448.394 572.162 442.417 571.935 438.673C571.738 435.432 572.767 433.708 574.974 431.552Z"/></svg>