<svg width="265" height="275" xmlns="http://www.w3.org/2000/svg" xmlns:xlink="http://www.w3.org/1999/xlink" xml:space="preserve" overflow="hidden"><defs><clipPath id="clip0"><rect x="662" y="1615" width="265" height="275"/></clipPath><linearGradient x1="931.906" y1="1620.09" x2="657.095" y2="1884.91" gradientUnits="userSpaceOnUse" spreadMethod="reflect" id="fill1"><stop offset="0" stop-color="#422692"/><stop offset="0.24" stop-color="#523EA6"/><stop offset="0.53" stop-color="#6E6ACB"/><stop offset="0.77" stop-color="#8085E1"/><stop offset="0.99" stop-color="#97A8FF"/><stop offset="1" stop-color="#97A8FF"/></linearGradient></defs><g clip-path="url(#clip0)" transform="translate(-662 -1615)"><path d="M703.3 1797.19 762.386 1797.19 757.822 1810.94 703.3 1810.94ZM795.219 1774.61C792.651 1774.57 790.07 1775.5 788.064 1777.4L782.53 1794.18 785.493 1797.14 802.295 1791.61C802.362 1791.55 802.429 1791.48 802.494 1791.41 806.26 1787.54 806.171 1781.35 802.295 1777.59 800.342 1775.64 797.787 1774.64 795.219 1774.61ZM703.3 1755.94 783.972 1755.94 770.233 1769.69 703.3 1769.69ZM703.3 1714.69 825.271 1714.69 811.532 1728.44 703.3 1728.44ZM878.218 1676.29 903.52 1701.58 806.446 1798.52 768.691 1810.96 781.164 1773.45ZM905.081 1652.81C907.096 1652.84 909.104 1653.63 910.624 1655.18L924.659 1669.2C924.825 1669.36 924.984 1669.52 925.135 1669.69 927.865 1672.79 927.563 1677.52 924.459 1680.24L910.624 1694.06 885.517 1669 899.356 1655.18C899.398 1655.14 899.441 1655.09 899.484 1655.05 901.039 1653.53 903.064 1652.79 905.081 1652.81ZM768.691 1628.75C765.938 1628.7 763.284 1629.77 761.34 1631.72 759.391 1633.66 758.318 1636.31 758.366 1639.06 758.366 1644.76 762.988 1649.37 768.691 1649.37 774.393 1649.37 779.016 1644.76 779.016 1639.06 779.016 1633.37 774.393 1628.75 768.691 1628.75ZM748.041 1615 789.341 1615C796.944 1615 803.107 1621.16 803.107 1628.75L803.107 1635.62 861.615 1635.62C869.218 1635.62 875.382 1641.78 875.382 1649.37L875.382 1664.53 871.496 1668.42 870.908 1669 854.732 1685.2 854.732 1656.25 816.874 1656.25 816.874 1676.87 720.508 1676.87 720.508 1656.25 682.65 1656.25 682.65 1869.37 854.732 1869.37 854.732 1764.87 875.382 1744.25 875.382 1876.25C875.382 1883.84 869.218 1890 861.615 1890L675.767 1890C668.164 1890 662 1883.84 662 1876.25L662 1649.37C662 1641.78 668.164 1635.62 675.767 1635.62L734.274 1635.62 734.274 1628.75C734.274 1621.16 740.438 1615 748.041 1615Z" fill="url(#fill1)" fill-rule="evenodd"/></g></svg>