<svg width="310" height="234" xmlns="http://www.w3.org/2000/svg" xmlns:xlink="http://www.w3.org/1999/xlink" xml:space="preserve" overflow="hidden"><defs><clipPath id="clip0"><rect x="1180" y="230" width="310" height="234"/></clipPath><linearGradient x1="1447.52" y1="197.935" x2="1222.48" y2="496.065" gradientUnits="userSpaceOnUse" spreadMethod="reflect" id="fill1"><stop offset="0" stop-color="#422692"/><stop offset="0.24" stop-color="#523EA6"/><stop offset="0.53" stop-color="#6E6ACB"/><stop offset="0.77" stop-color="#8085E1"/><stop offset="0.99" stop-color="#97A8FF"/><stop offset="1" stop-color="#97A8FF"/></linearGradient></defs><g clip-path="url(#clip0)" transform="translate(-1180 -230)"><path d="M1428 230 1242 230 1180 309.147 1335 464 1335 464 1490 309.147ZM1275.38 316.029 1320.53 420.366 1216.1 316.029ZM1379.78 316.029 1335 419.265 1290.22 316.029ZM1289.22 302.265 1305.1 250.647 1364.9 250.647 1380.78 302.265ZM1394.62 316.029 1453.87 316.029 1349.54 420.263ZM1458.38 302.265 1395.21 302.265 1379.3 250.647 1417.94 250.647ZM1252.06 250.647 1290.7 250.647 1274.79 302.265 1211.62 302.265Z" fill="url(#fill1)" fill-rule="evenodd"/></g></svg>