<svg width="275" height="302" xmlns="http://www.w3.org/2000/svg" xmlns:xlink="http://www.w3.org/1999/xlink" xml:space="preserve" overflow="hidden"><defs><clipPath id="clip0"><rect x="194" y="1060" width="275" height="302"/></clipPath><linearGradient x1="481.84" y1="1074.1" x2="181.16" y2="1347.9" gradientUnits="userSpaceOnUse" spreadMethod="reflect" id="fill1"><stop offset="0" stop-color="#422692"/><stop offset="0.24" stop-color="#523EA6"/><stop offset="0.53" stop-color="#6E6ACB"/><stop offset="0.77" stop-color="#8085E1"/><stop offset="0.99" stop-color="#97A8FF"/><stop offset="1" stop-color="#97A8FF"/></linearGradient><linearGradient x1="481.84" y1="1074.1" x2="181.16" y2="1347.9" gradientUnits="userSpaceOnUse" spreadMethod="reflect" id="fill2"><stop offset="0" stop-color="#422692"/><stop offset="0.24" stop-color="#523EA6"/><stop offset="0.53" stop-color="#6E6ACB"/><stop offset="0.77" stop-color="#8085E1"/><stop offset="0.99" stop-color="#97A8FF"/><stop offset="1" stop-color="#97A8FF"/></linearGradient></defs><g clip-path="url(#clip0)" transform="translate(-194 -1060)"><path d="M448.375 1333.17 379.625 1267.97 448.375 1202.76 448.375 1333.17ZM225.625 1341.41 293.687 1277.23 298.5 1272.77C317.062 1255.27 346.281 1255.27 364.844 1272.77L369.656 1277.23 437.375 1341.41 225.625 1341.41ZM214.625 1202.42 283.375 1267.63 214.625 1332.83 214.625 1202.42ZM262.75 1114.91 400.25 1114.91 400.25 1229.19 369.312 1258.7C346.969 1241.54 316.031 1241.54 293.687 1258.7L262.75 1229.19 262.75 1114.91ZM420.875 1124.18 420.875 1094.32 372.75 1094.32 331.5 1060 290.25 1094.32 242.125 1094.32 242.125 1124.52 194 1170.16 194 1362 469 1362 469 1170.16 420.875 1124.18Z" fill="url(#fill1)" fill-rule="evenodd"/><path d="M331.16 1191.68C324.999 1191.68 320.207 1186.53 320.207 1180.69 320.207 1174.5 325.341 1169.69 331.16 1169.69 337.321 1169.69 342.113 1174.5 342.113 1180.69 342.113 1186.87 337.321 1191.68 331.16 1191.68ZM331.16 1225C339.033 1225 346.563 1222.94 353.409 1219.5 356.147 1217.79 357.174 1214.35 355.805 1211.6 354.093 1208.86 350.671 1207.82 347.932 1209.2 342.798 1211.95 336.979 1213.32 331.16 1213.32 313.018 1213.32 297.958 1198.21 298.3 1180 298.3 1161.79 313.361 1146.68 331.502 1146.68 349.644 1146.68 364.705 1161.45 364.705 1180L364.705 1190.99C358.543 1190.99 353.751 1186.18 353.751 1180 353.751 1169.01 346.221 1159.73 335.61 1157.67 324.999 1155.61 314.388 1161.45 310.623 1171.41 306.857 1181.37 310.623 1193.05 319.864 1198.55 329.106 1204.05 341.086 1202.33 348.275 1194.08 352.382 1198.89 358.543 1201.64 365.047 1201.64 371.208 1201.64 376 1196.83 376 1190.65L376 1179.66C376 1154.92 356.147 1135 331.502 1135 306.857 1135 287.004 1154.92 287.004 1179.66 286.662 1204.73 306.515 1224.66 331.16 1225Z" fill="url(#fill2)" fill-rule="evenodd"/></g></svg>