<svg width="316" height="193" xmlns="http://www.w3.org/2000/svg" xmlns:xlink="http://www.w3.org/1999/xlink" xml:space="preserve" overflow="hidden"><defs><linearGradient x1="453.852" y1="661.935" x2="282.148" y2="943.065" gradientUnits="userSpaceOnUse" spreadMethod="reflect" id="fill0"><stop offset="0" stop-color="#422692"/><stop offset="0.24" stop-color="#523EA6"/><stop offset="0.53" stop-color="#6E6ACB"/><stop offset="0.77" stop-color="#8085E1"/><stop offset="0.99" stop-color="#97A8FF"/><stop offset="1" stop-color="#97A8FF"/></linearGradient></defs><g transform="translate(-210 -706)"><path d="M210 878.321 347.391 878.321 347.391 881.768C347.391 883.836 348.765 885.214 350.826 885.214L385.174 885.214C387.235 885.214 388.609 883.836 388.609 881.768L388.609 878.321 526 878.321 526 885.214C526 892.796 519.817 899 512.261 899L223.739 899C216.183 899 210 892.796 210 885.214ZM271.826 726.679 271.826 843.857 464.174 843.857 464.174 726.679ZM264.957 706 471.043 706C478.6 706 484.783 712.204 484.783 719.786L484.783 864.536 251.217 864.536 251.217 719.786C251.217 712.204 257.4 706 264.957 706Z" fill="url(#fill0)" fill-rule="evenodd"/></g></svg>