<svg width="193" height="251" xmlns="http://www.w3.org/2000/svg" xmlns:xlink="http://www.w3.org/1999/xlink" xml:space="preserve" overflow="hidden"><defs><clipPath id="clip0"><rect x="1221" y="677" width="193" height="251"/></clipPath><linearGradient x1="1438.79" y1="709.238" x2="1196.21" y2="895.762" gradientUnits="userSpaceOnUse" spreadMethod="reflect" id="fill1"><stop offset="0" stop-color="#422692"/><stop offset="0.24" stop-color="#523EA6"/><stop offset="0.53" stop-color="#6E6ACB"/><stop offset="0.77" stop-color="#8085E1"/><stop offset="0.99" stop-color="#97A8FF"/><stop offset="1" stop-color="#97A8FF"/></linearGradient></defs><g clip-path="url(#clip0)" transform="translate(-1221 -677)"><path d="M1324.39 875.393 1324.39 893.617 1310.61 893.617 1310.61 875.393C1302.68 872.643 1296.82 865.078 1296.82 855.795 1296.82 844.448 1306.13 835.164 1317.5 835.164 1328.87 835.164 1338.18 844.448 1338.18 855.795 1338.18 864.734 1332.32 872.299 1324.39 875.393ZM1265.8 749.205C1265.8 720.667 1288.89 697.63 1317.5 697.63 1346.11 697.63 1369.2 720.667 1369.2 749.205L1369.2 787.371 1317.5 783.589 1265.8 787.371 1265.8 749.205ZM1389.87 788.747 1389.87 749.205C1389.87 709.32 1357.48 677 1317.5 677 1277.52 677 1245.12 709.32 1245.12 749.205L1245.12 788.747 1221 790.466 1221 921.123 1317.5 928 1414 921.123 1414 790.466 1389.87 788.747Z" fill="url(#fill1)" fill-rule="evenodd"/></g></svg>