<svg width="278" height="277" xmlns="http://www.w3.org/2000/svg" xmlns:xlink="http://www.w3.org/1999/xlink" xml:space="preserve" overflow="hidden"><defs><linearGradient x1="1059.11" y1="354.043" x2="755.876" y2="286.565" gradientUnits="userSpaceOnUse" spreadMethod="reflect" id="fill0"><stop offset="0" stop-color="#422692"/><stop offset="0.24" stop-color="#523EA6"/><stop offset="0.53" stop-color="#6E6ACB"/><stop offset="0.77" stop-color="#8085E1"/><stop offset="0.99" stop-color="#97A8FF"/><stop offset="1" stop-color="#97A8FF"/></linearGradient></defs><g transform="translate(-758 -204)"><path d="M841.542 431.181C843.386 431.396 845.62 433.217 848.438 433.827 853.937 434.834 859.447 430.679 857.067 442.52 854.549 454.147 845.376 475.213 839.739 473.992 834.316 472.633 834.467 449.797 836.985 438.171 838.244 432.357 839.698 430.966 841.542 431.181ZM825.045 396.42C827.466 397.563 828.602 401.853 831.696 404.947 837.196 410.103 846.477 409.416 835.133 421.103 823.79 432.447 798.008 449.635 792.508 444.134 787.352 438.634 804.196 412.853 815.539 401.509 818.375 398.674 820.459 397.127 822.076 396.487 823.289 396.008 824.239 396.039 825.045 396.42ZM933.79 393.947 939.29 408.041C941.352 412.853 939.977 418.353 936.54 421.791L881.883 476.447C872.602 485.728 857.477 477.134 860.228 464.759L870.883 415.947C888.758 412.509 910.759 405.978 933.79 393.947ZM799.274 380.751C811.124 379.702 806.315 384.651 806.823 390.397 807.495 395.947 813.099 399.974 801.086 401.219 789.236 402.267 766.396 399.764 765.887 394.019 765.574 388.437 787.425 381.799 799.274 380.751ZM823.747 299.201C826.11 298.728 828.602 298.9 831.008 299.759L842.696 304.228C829.977 328.291 823.79 351.322 820.009 368.509L774.29 378.822C761.914 381.572 753.664 366.103 762.602 357.166L817.258 302.509C819.149 300.79 821.383 299.673 823.747 299.201ZM956.864 259.111C951.579 259.111 946.337 261.087 942.384 265.04 934.477 273.29 934.477 286.353 942.384 294.259 950.634 302.165 963.696 302.166 971.602 294.259 979.509 286.353 979.509 273.291 971.602 265.04 967.478 261.087 962.149 259.11 956.864 259.111ZM954.071 220.009C965.415 224.478 978.477 233.415 990.852 245.447 1003.57 258.509 1012.51 271.915 1016.98 283.259 1008.73 303.54 994.634 326.228 972.29 348.571 931.384 389.478 881.54 401.165 853.352 404.603L832.04 383.29C835.477 355.103 847.509 305.603 888.415 264.697 910.759 242.353 933.79 228.259 954.071 220.009ZM1026.15 204.444C1030.13 204.497 1032.96 205.056 1034.16 206.259 1039.32 211.072 1030.38 238.572 1023.51 265.04 1018.01 255.415 1010.45 245.791 1000.82 236.165 991.54 226.884 981.914 219.322 972.634 213.821 991.97 208.665 1014.21 204.283 1026.15 204.444Z" fill="url(#fill0)" fill-rule="evenodd"/></g></svg>