<svg width="165" height="303" xmlns="http://www.w3.org/2000/svg" xmlns:xlink="http://www.w3.org/1999/xlink" xml:space="preserve" overflow="hidden"><defs><clipPath id="clip0"><rect x="1153" y="1086" width="165" height="303"/></clipPath><linearGradient x1="1362.76" y1="1168.2" x2="1108.24" y2="1306.8" gradientUnits="userSpaceOnUse" spreadMethod="reflect" id="fill1"><stop offset="0" stop-color="#422692"/><stop offset="0.24" stop-color="#523EA6"/><stop offset="0.53" stop-color="#6E6ACB"/><stop offset="0.77" stop-color="#8085E1"/><stop offset="0.99" stop-color="#97A8FF"/><stop offset="1" stop-color="#97A8FF"/></linearGradient></defs><g clip-path="url(#clip0)" transform="translate(-1153 -1086)"><path d="M1297.37 1347.68 1173.62 1347.68 1173.62 1127.32 1297.37 1127.32 1297.37 1347.68ZM1221.75 1099.77 1249.25 1099.77C1253.03 1099.77 1256.12 1102.87 1256.12 1106.66 1256.12 1110.45 1253.03 1113.55 1249.25 1113.55L1221.75 1113.55C1217.97 1113.55 1214.87 1110.45 1214.87 1106.66 1214.87 1102.87 1217.97 1099.77 1221.75 1099.77ZM1311.12 1086 1159.87 1086C1156.09 1086 1153 1089.1 1153 1092.89L1153 1382.11C1153 1385.9 1156.09 1389 1159.87 1389L1311.12 1389C1314.91 1389 1318 1385.9 1318 1382.11L1318 1092.89C1318 1089.1 1314.91 1086 1311.12 1086Z" fill="url(#fill1)" fill-rule="evenodd"/></g></svg>