<svg width="233" height="234" xmlns="http://www.w3.org/2000/svg" xmlns:xlink="http://www.w3.org/1999/xlink" xml:space="preserve" overflow="hidden"><defs><clipPath id="clip0"><rect x="744" y="685" width="233" height="234"/></clipPath><linearGradient x1="977.499" y1="685.501" x2="743.501" y2="918.499" gradientUnits="userSpaceOnUse" spreadMethod="reflect" id="fill1"><stop offset="0" stop-color="#422692"/><stop offset="0.24" stop-color="#523EA6"/><stop offset="0.53" stop-color="#6E6ACB"/><stop offset="0.77" stop-color="#8085E1"/><stop offset="0.99" stop-color="#97A8FF"/><stop offset="1" stop-color="#97A8FF"/></linearGradient></defs><g clip-path="url(#clip0)" transform="translate(-744 -685)"><path d="M765.354 892.207C764.117 891.951 762.807 892.097 761.497 892.681 759.168 893.557 757.421 896.187 757.421 898.815 757.421 901.444 758.877 903.781 761.497 904.949 764.117 906.118 766.737 905.534 768.775 903.489 771.395 900.86 771.395 896.478 768.775 894.142 767.756 893.12 766.591 892.462 765.354 892.207ZM898.031 809.141 973.14 884.503C978.962 893.266 978.089 904.949 970.811 912.544 963.533 919.847 951.888 921.015 943.446 914.881L943.155 915.173 940.535 912.544 867.755 839.52ZM940.307 685.246C943.919 685.529 947.521 686.315 951.015 687.629L927.434 711.289 932.092 729.691 950.724 734.656 974.304 710.997C979.835 725.017 976.633 741.083 966.735 752.182 956.546 763.282 941.408 767.664 926.852 763.866L778.381 912.836C773.141 918.094 765.864 920.138 758.877 918.386 751.89 916.633 746.358 911.083 744.612 904.073 742.865 897.063 744.903 889.468 750.143 884.503L898.613 735.533C894.829 720.928 899.196 705.739 910.258 695.515 918.555 688.067 929.472 684.398 940.307 685.246ZM754.219 685 779.255 705.155 786.824 719.176 786.533 719.468 842.137 775.258 833.986 783.437 778.382 727.646 778.091 727.939 764.117 720.344 744.03 695.224Z" fill="url(#fill1)" fill-rule="evenodd"/></g></svg>