<svg width="305" height="309" xmlns="http://www.w3.org/2000/svg" xmlns:xlink="http://www.w3.org/1999/xlink" xml:space="preserve" overflow="hidden"><defs><clipPath id="clip0"><rect x="243" y="155" width="305" height="309"/></clipPath><linearGradient x1="549.987" y1="157.013" x2="241.013" y2="461.987" gradientUnits="userSpaceOnUse" spreadMethod="reflect" id="fill1"><stop offset="0" stop-color="#422692"/><stop offset="0.24" stop-color="#523EA6"/><stop offset="0.53" stop-color="#6E6ACB"/><stop offset="0.77" stop-color="#8085E1"/><stop offset="0.99" stop-color="#97A8FF"/><stop offset="1" stop-color="#97A8FF"/></linearGradient></defs><g clip-path="url(#clip0)" transform="translate(-243 -155)"><path d="M354.585 252.874 348.57 276.595 329.756 289.356 323.001 299.391 322.608 299.51 322.704 299.831 316.488 309.066C313.352 316.476 311.616 324.612 311.616 333.135 311.616 367.229 339.405 395.124 373.37 395.124 390.352 395.124 405.791 388.15 416.983 376.915L429.568 358.219 453.659 350.924 449.211 365.227C436.667 394.866 407.334 415.787 373.37 415.787 328.083 415.787 291.031 378.594 291.031 333.135 291.031 299.042 311.873 269.597 341.399 257.005ZM348.801 204.753 337.661 216.885 349.138 225.864 330.742 231.629C291.374 248.417 263.585 287.677 263.585 333.135 263.585 393.746 312.988 443.337 373.37 443.337 426.204 443.337 470.632 405.369 480.914 355.272L481.519 349.294 493.924 363.062 501.558 354.884 501.092 359.522C488.944 419.177 436.41 464 373.37 464 301.323 464 243 405.455 243 333.135 243 269.855 287.654 217.121 347.082 204.927ZM392.312 155 411.034 179.887 439.331 167.016 426.164 218.933 409.775 226.304 391.09 299.974 444.095 246.768 442.037 228.86 479.776 190.978 483.207 221.972 514.084 225.416 476.345 263.298 458.505 261.232 411.919 307.995 475.915 286.74 482.09 269.813 532.759 252.985 521.954 282.223 548 299.222 497.331 316.051 482.317 306.16 408.616 330.638C408.604 336.028 407.518 341.262 404.899 346.493L398.812 354.262 397.309 356.497 396.783 356.853 396.496 357.219 395.016 358.052 386.4 363.895C382.299 365.644 377.796 366.612 373.079 366.612 368.361 366.612 363.858 365.644 359.757 363.895L352.617 359.052 352.07 358.793 351.808 358.504 348.849 356.497 345.499 351.52 342.938 348.685 342.242 346.681 341.478 345.546 340.962 342.998 338.461 335.802C336.671 322.505 342.743 308.744 354.909 301.488L361.281 299.606 363.484 298.367 367.032 297.908 370.874 296.773 390.027 221.258 379.145 206.917Z" fill="url(#fill1)" fill-rule="evenodd"/></g></svg>